<?xml version="1.0" encoding="utf-8"?>
<!-- Generator: Adobe Illustrator 24.1.1, SVG Export Plug-In . SVG Version: 6.00 Build 0)  -->
<svg version="1.1" xmlns="http://www.w3.org/2000/svg" xmlns:xlink="http://www.w3.org/1999/xlink" x="0px" y="0px"
	 viewBox="0 0 736.5 461" style="enable-background:new 0 0 736.5 461;" xml:space="preserve">
<style type="text/css">
	.st0{display:none;}
	.st1{display:inline;fill:#808080;}
	.st2{filter:url(#Adobe_OpacityMaskFilter);}
	.st3{mask:url(#SVGID_1_);}
	.st4{fill:url(#SVGID_2_);}
	.st5{opacity:0.8;fill:#FFFFFF;}
	.st6{opacity:0.8;}
	.st7{fill:#FFFFFF;}
	.st8{fill:url(#SVGID_3_);}
	.st9{opacity:0.8;fill-rule:evenodd;clip-rule:evenodd;}
	.st10{font-family:'MyriadPro-Regular';}
	.st11{font-size:42.3359px;}
</style>
<g id="Layer_5" class="st0">
	<rect class="st1" width="736.5" height="461"/>
</g>
<g id="Layer_1">
	<g>
		<defs>
			<filter id="Adobe_OpacityMaskFilter" filterUnits="userSpaceOnUse" x="198.2" y="59.6" width="503.2" height="367.2">
				<feFlood  style="flood-color:white;flood-opacity:1" result="back"/>
				<feBlend  in="SourceGraphic" in2="back" mode="normal"/>
			</filter>
		</defs>
		<mask maskUnits="userSpaceOnUse" x="198.2" y="59.6" width="503.2" height="367.2" id="SVGID_1_">
			<g class="st2">
				<image style="overflow:visible;" width="508" height="372" xlink:href="85FDF7F2.jpg"  transform="matrix(1 0 0 1 196 56.878)">
				</image>
			</g>
		</mask>
		<g class="st3">
			<linearGradient id="SVGID_2_" gradientUnits="userSpaceOnUse" x1="198.1768" y1="243.2604" x2="701.3301" y2="243.2604">
				<stop  offset="1.173060e-02" style="stop-color:#006EBF;stop-opacity:0"/>
				<stop  offset="1.409966e-02" style="stop-color:#0370C0;stop-opacity:2.397180e-03"/>
				<stop  offset="5.933096e-02" style="stop-color:#328ACC;stop-opacity:4.816538e-02"/>
				<stop  offset="0.1075" style="stop-color:#5DA3D6;stop-opacity:9.695446e-02"/>
				<stop  offset="0.1613" style="stop-color:#84B9E0;stop-opacity:0.1513"/>
				<stop  offset="0.2193" style="stop-color:#A5CCE8;stop-opacity:0.21"/>
				<stop  offset="0.2829" style="stop-color:#C1DCF0;stop-opacity:0.2744"/>
				<stop  offset="0.3539" style="stop-color:#D8E9F5;stop-opacity:0.3462"/>
				<stop  offset="0.4357" style="stop-color:#EAF3FA;stop-opacity:0.429"/>
				<stop  offset="0.5349" style="stop-color:#F6FAFD;stop-opacity:0.5294"/>
				<stop  offset="0.6698" style="stop-color:#FDFEFE;stop-opacity:0.6659"/>
				<stop  offset="1" style="stop-color:#FFFFFF"/>
			</linearGradient>
			<path class="st4" d="M701.3,274c-1.8,41.1-31.9,73.2-67.9,73.2c-1.1,0-2.2,0-3.3-0.1c-3.6-0.2-7.3-0.7-11-1.6l-3.3-0.8l-2.3,2.8
				c-11.7,14.3-28.3,22.6-45.5,22.6c-8.6,0-16.9-2-24.8-5.8l-5.3-2.6l-2.5,5.9c-15,36-47.5,59.3-82.7,59.3c-32,0-62-19.3-78.4-50.3
				l-3.3-6.3l-5.3,4.2c-11,8.9-24,13.6-37.6,13.6c-33.7,0-62.2-29.8-64.7-67.8l-0.4-5.4l-4.8-0.8c-34.3-5.4-60.2-39.1-60.2-78.3
				c0-43.6,31.4-79.1,70-79.1c5.5,0,11.1,0.7,16.5,2.2l5.7,1.6l1.4-6.5c12.4-55.6,56.6-94.4,107.3-94.4c41.4,0,79,25.8,98.2,67.4
				l2.6,5.6l5.1-2.5c9.2-4.5,19-6.8,29.1-6.8c35.5,0,65.8,28.6,72.1,68.1l1.2,7.4l6.4-2.2c7.4-2.5,15-3.5,22.8-3.1
				C674,195.5,703.1,231.7,701.3,274z"/>
		</g>
	</g>
</g>
<g id="Layer_3">
	<g id="Layer_1_2_">
		
			<image style="overflow:visible;opacity:0.5;enable-background:new    ;" width="748" height="458" xlink:href="85FDF7F6.png"  transform="matrix(0.4947 0 0 0.4947 40.9636 57.1129)">
		</image>
		<g>
			<g>
				<path class="st5" d="M208.6,160.9c-6,12.5-13.2,29-34,23.1c2.1-3.9,5.4-6.5,8.3-9.9c8-9.6,15.5-22.8,17-39.5
					c3.4-38.5-17.6-66.6-44.5-72c-26.5-5.3-46.2,9.1-60.4,25.3c-13.8,15.6-20,33.1-18.1,60.9c1.9,28.9,20.7,51,52.2,53.3
					c11.4,0.8,20.9-1.6,28.5-7.1c7.7,4.8,18.2,10.9,29.1,6.6c9.3-3.7,17.1-17.5,20.9-28.5C208.9,169,211.4,164.1,208.6,160.9z
					 M116.4,174.6c11.9-4.7,22.7,3.4,28.5,9.9C132.6,183.9,123.3,180.4,116.4,174.6z M164.7,179c-13.8-7-35.9-20.7-53.3-8.3
					c-15.7-12.8-22.2-39.1-15.4-64.8c4.3-16,10.7-24.6,26.9-26.4c46.3-4.9,65.7,41.5,55.5,81.3C176.6,167.9,172.5,182.9,164.7,179z"
					/>
				<path class="st5" d="M280.6,185.5c-15.3,0.5-31.4,1.5-46.7,0.5c-1.2-13.4-0.2-33.3-0.5-49.4c13.3,0,26.8-0.1,37.9,0.5
					c3-3.6,4.9-8.3,6.6-13.2c-16.4-0.3-29.1,0.7-44.5,0.5c0.4-17.2-1.4-30.6,0-46.7c11.9-0.9,27.8-1.1,39,0.5
					c2.6-4.2,4.6-9,6.6-13.7c-22.8,0-44.5,0.9-67.6,0.5c1,41.6,1.5,92,0.5,134c20.8-0.3,43.5,0.4,62.1,0.5
					C276.5,195.4,278.8,190.7,280.6,185.5z"/>
				<g class="st6">
					<g>
						<path class="st7" d="M392.1,90c-16.9-27.7-57-26.9-102.7-24.7c1.9,42.9,2.5,90.6,0.5,134c14.4-1,26.9,1,39,1.1
							c29.5,0.1,48.4-17.4,59.9-36.8C399.8,144.9,404.9,111,392.1,90z M381.1,149.8c-0.4,6.4-1.7,12.8-4.4,18.1
							c-8.6,17.3-40,23.5-64.3,16.5c0.3-36.7-1.4-82.3,0.5-108.8C359.4,71.7,384.2,107.5,381.1,149.8z"/>
					</g>
				</g>
				
					<linearGradient id="SVGID_3_" gradientUnits="userSpaceOnUse" x1="44.9199" y1="294.1452" x2="392.1024" y2="294.1452" gradientTransform="matrix(1 0 0 -1 0 462)">
					<stop  offset="0" style="stop-color:#1E3C82"/>
					<stop  offset="2.059058e-02" style="stop-color:#244287"/>
					<stop  offset="4.773717e-02" style="stop-color:#345295"/>
					<stop  offset="7.855944e-02" style="stop-color:#506CAD"/>
					<stop  offset="0.1121" style="stop-color:#7690CD"/>
					<stop  offset="0.1474" style="stop-color:#A6BFF7"/>
					<stop  offset="0.1538" style="stop-color:#B0C8FF"/>
					<stop  offset="0.4725" style="stop-color:#1E3C82"/>
					<stop  offset="0.7582" style="stop-color:#B0C8FF"/>
					<stop  offset="1" style="stop-color:#1E3C82"/>
				</linearGradient>
				<path class="st8" d="M392.1,201.5c-39.5,33.6-101.6,56.4-170.8,56.6c-32.3,0.1-65.2-8.7-91.2-21.4c-25.6-12.6-47.4-30-59.4-53.8
					c-4.9-9.8-9-21.7-9.9-34.6c-3-40.5,15.6-62.5,31.9-85.1C78.9,73.4,68.8,85.2,60.3,99.9c-8.2,14.2-15.2,32.5-15.4,53.8
					C44.7,192,67.5,221,93.3,239.4c25.6,18.3,64.3,31.2,102.7,32.9c44.4,2.1,83.5-5.2,115.9-17.6
					C343.9,242.5,371.6,224.6,392.1,201.5z"/>
			</g>
		</g>
	</g>
</g>
<g id="Layer_2">
	<path class="st9" d="M427.1,326.3v-83.2c0-11.6,8.9-21,19.9-21h0.4v-30.6c0-25.5,19.6-46.2,43.7-46.2h12.4
		c24.1,0,43.7,20.7,43.7,46.2v30.6h0.4c10.9,0,19.8,9.4,19.8,21v83.2c0,11.6-8.9,21-19.8,21H446.9
		C436,347.3,427.1,337.9,427.1,326.3z M504.8,307.9v-17.4c0.9-0.6,1.7-1.3,2.5-2.1c5.6-5.9,5.6-15.4,0-21.3
		c-5.5-5.9-14.6-5.9-20.1,0c-5.5,5.9-5.5,15.4,0,21.3c0.8,0.8,1.6,1.5,2.5,2.1v17.4c0,4,3.1,7.3,6.9,7.3h1.3
		C501.8,315.2,504.8,312,504.8,307.9z M530.6,222.1v-28.4c0-17.1-13.1-30.9-29.2-30.9h-8.3c-16.1,0-29.2,13.8-29.2,30.9v28.4H530.6z
		"/>
</g>
<g id="Layer_4">
	<text transform="matrix(1 0 0 1 94.0745 342.873)"><tspan x="0" y="0" class="st7 st10 st11">Private</tspan><tspan x="17.3" y="50.8" class="st7 st10 st11">Cloud</tspan></text>
</g>
</svg>
